<svg width="27" height="26" viewBox="0 0 27 26" fill="none" xmlns="http://www.w3.org/2000/svg">
<g id="Union">
<path d="M24.235 16.1844C24.2149 16.2143 24.1948 16.2444 24.1742 16.274C23.8887 16.6918 23.898 16.7464 23.9694 17.0365L24.9977 20.9531C25.0083 20.993 25.008 21.0349 24.997 21.0746C24.986 21.1142 24.9646 21.1503 24.9351 21.179C24.9056 21.2077 24.8689 21.2281 24.8289 21.2379C24.7889 21.2478 24.747 21.2468 24.7075 21.2352L20.2147 19.9364C19.9889 19.8714 19.7057 19.9422 19.5247 20.0113C19.3436 20.0803 18.6438 20.3363 17.9375 20.5301C17.2312 20.7239 15.9435 21.0112 14.9877 21.0112C8.97558 21.0112 4.3005 16.2113 4.3005 10.4429C4.30106 9.72421 4.37889 9.00765 4.53263 8.30558C5.55748 3.5684 9.93195 0 15.1757 0C21.1879 0 26.0498 4.6745 26.0313 10.4371C26.0289 12.4477 25.4283 14.4121 24.306 16.0802C24.2821 16.114 24.2586 16.1491 24.235 16.1844Z" fill="white"/>
<path d="M14.9657 22.3687C15.4179 22.3609 15.869 22.3212 16.3156 22.2497C16.3677 22.2416 16.4212 22.2502 16.4681 22.2743C16.5151 22.2985 16.5531 22.337 16.5768 22.3842C16.6004 22.4315 16.6085 22.485 16.5997 22.5371C16.5909 22.5891 16.5658 22.6371 16.528 22.674C14.6961 24.3964 12.2741 25.3517 9.75966 25.3434C8.45335 25.3434 7.14705 25.0579 5.96609 24.5937C5.8481 24.5423 5.72114 24.5147 5.59247 24.5126C5.46381 24.5104 5.33598 24.5336 5.21631 24.5809L1.27012 25.9876C1.2317 26.0007 1.19053 26.0035 1.1507 25.9957C1.11087 25.9879 1.07378 25.9698 1.04313 25.9432C1.01248 25.9166 0.989335 25.8824 0.97601 25.8441C0.962686 25.8057 0.959645 25.7646 0.967189 25.7247L1.78486 21.5313C1.80982 21.4187 1.72857 21.2498 1.58523 21.0311C0.441786 19.3179 -0.0946106 17.271 0.0617056 15.2172C0.218022 13.1634 1.05803 11.2212 2.44759 9.70084C2.48249 9.66264 2.5283 9.63612 2.5788 9.62487C2.6293 9.61363 2.68204 9.61821 2.72984 9.63799C2.77765 9.65777 2.8182 9.69179 2.84599 9.73544C2.87378 9.77908 2.88746 9.83022 2.88516 9.8819L2.88509 9.88362C2.87873 10.0583 2.87239 10.2324 2.87239 10.4135C2.87239 13.0818 3.69761 15.6317 5.21109 17.6379C6.0383 18.7867 7.08556 19.7596 8.29202 20.5001C10.1781 21.7187 12.5034 22.3687 14.9657 22.3687Z" fill="white"/>
</g>
</svg>
